<?xml version="1.0" encoding="UTF-8"?>
<svg id="Layer_2" data-name="Layer 2" xmlns="http://www.w3.org/2000/svg" viewBox="0 0 706.45 487.43">
  <g id="Layer_1-2" data-name="Layer 1">
    <path d="M291.91,390.81c-8.94,21.65-17.86,37.48-26.8,47.53-8.92,10.05-18.8,17.05-29.63,21.01-10.82,3.95-29.63,5.93-56.41,5.93h-25.5c-22.51,0-35.91-.87-40.19-2.58-4.31-1.71-7.49-4.39-9.54-8-2.75-5.31-4.12-15.1-4.12-29.36v-219.51c0-20.78,1.37-33.92,4.12-39.42s7.85-10.05,15.34-13.65c7.45-3.61,20.48-5.33,39.02-5.16v-9.54H0v9.54h13.14c13.23,0,23.19,3.78,29.89,11.33,4.8,5.5,7.21,19.16,7.21,40.96v225.44c0,19.93-1.81,32.64-5.4,38.14-6.36,9.62-16.92,14.42-31.7,14.42H0v9.54h270.52l29.89-94.81-8.51-1.81Z"/>
    <path d="M405.53,88.52v7.55c2.07.36,3.52.6,4.39.77,11.84,1.9,20.25,5.12,25.24,9.68,4.99,4.56,7.47,9.32,7.47,14.29,0,7.74-4.03,21.57-12.1,41.49l-7.77,19.07-74.67,183.19-88.88-204.83c-7.91-18.2-11.86-31.6-11.86-40.19,0-6.19,2.41-11.26,7.21-15.21,4.82-3.93,15.28-6.68,31.43-8.24v-9.52h-142.74v9.52c10.65.87,19.1,2.8,25.37,5.8,6.29,3.01,11.56,7.17,15.85,12.5,2.75,3.44,7.47,12.89,14.17,28.35l130.88,301.17h9.54l98.39-240.05,22.34-54.53,1.13-2.73c7.04-17.34,15.12-30.23,24.23-38.64,6.34-5.67,15.7-9.62,28.08-11.86v-7.55h-107.71Z"/>
    <path d="M584.59,88.59v9.54c3.16,0,6.08.13,8.7.38,5.06.49,9.11,1.43,12.18,2.84,4.63,2.15,8.19,5.12,10.69,8.88,2.49,3.78,3.73,8.08,3.73,12.89,0,7.89-5.16,19.91-15.45,36.07l-68.54,107.69-72.92-112.58c-1.11-1.73-2.18-3.39-3.18-5.01-8.34-13.48-12.54-22.96-12.54-28.5,0-7.55,3.39-13.21,10.18-17,6.79-3.78,14.21-5.67,22.29-5.67h7.74v-9.54h-149.44v9.54c6.53,0,11.5.87,14.95,2.58,12.71,6,21.08,11.16,25.11,15.45,4.05,4.29,11.73,15.04,23.06,32.21l21.61,32.98,14.7,22.47,59.54,90.88v82.71c0,19.58-1.88,32.13-5.67,37.61-6.17,8.94-16.66,13.4-31.43,13.4h-12.37v9.54h148.4v-9.54h-11.33c-14.08,0-24.39-3.6-30.93-10.82-4.8-5.31-7.21-18.71-7.21-40.19v-87.6l84.25-132.68c10.3-16.66,18.97-28.67,26.01-36.06,7.04-7.38,14.87-13.04,23.45-17,8.58-3.95,15.11-5.93,19.57-5.93h6.7v-9.54h-121.86ZM539.47,0l-23.58,77.53-2.18,7.15-1.28,4.2h8.75l1.22-1.43,8.49-9.92L597.18,0h-57.71Z"/>
  </g>
</svg>